<svg xmlns="http://www.w3.org/2000/svg" viewBox="0 0 360 360"><title>logo-2019-v2-banana-nocircle</title><path d="M176.7775,162.5739A150.6215,150.6215,0,0,1,39.34,73.2394a137.4377,137.4377,0,1,0,274.8754,0A150.6214,150.6214,0,0,1,176.7775,162.5739Z" style="fill:#cb9904"/><path d="M308.353,62.1742c-26.1969,17.109-90.31,59.1683-131.5755,59.1684A220.9148,220.9148,0,0,1,71.4512,94.4046,100.0931,100.0931,0,0,1,39.34,73.24h0a150.3886,150.3886,0,0,0,274.8754,0Z" style="fill:#ffcc03"/><path d="M197.6229,228.7378A185.754,185.754,0,0,1,.6686,183.1809,169.4951,169.4951,0,1,0,319.2152,67.2394,185.754,185.754,0,0,1,197.6229,228.7378Z" style="fill:#cb9904"/><path d="M308.353,62.1742C285.2105,93.0512,228.0535,163.55,180.2317,180.9558A272.4433,272.4433,0,0,1,46.8091,194.1642c-16.1926-.84-31.7338-4.2654-46.14-10.9832h0A185.4668,185.4668,0,0,0,319.2152,67.2394Z" style="fill:#ffcc03"/><path d="M254.5334,270.5683A197.2666,197.2666,0,0,1,41.4392,296.6429,180,180,0,0,0,317.2152,65.2394,197.2666,197.2666,0,0,1,254.5334,270.5683Z" style="fill:#cb9904"/><path d="M308.353,62.1742c-11.88,39.2189-47.1293,132.2882-88.53,167.0277A289.3287,289.3287,0,0,1,91.4736,290.8445c-16.4643,5.043-33.2175,7.27-50.0342,5.7984h0A196.9615,196.9615,0,0,0,317.2152,65.2394Z" style="fill:#ffcc03"/></svg>