<?xml version="1.0" encoding="utf-8"?>
<!-- Generator: Adobe Illustrator 21.0.2, SVG Export Plug-In . SVG Version: 6.00 Build 0)  -->
<svg version="1.1" id="Layer_1" xmlns="http://www.w3.org/2000/svg" xmlns:xlink="http://www.w3.org/1999/xlink" x="0px" y="0px"
	 viewBox="0 0 865.5 360" style="enable-background:new 0 0 865.5 360;" xml:space="preserve">
<style type="text/css">
	.st0{display:none;}
	.st1{display:inline;}
	.st2{clip-path:url(#SVGID_2_);}
	.st3{clip-path:url(#SVGID_4_);fill:#FFCC03;}
	.st4{clip-path:url(#SVGID_6_);fill:#CB9904;}
	.st5{clip-path:url(#SVGID_6_);fill:#FFCC03;}
	.st6{clip-path:url(#SVGID_8_);}
	.st7{clip-path:url(#SVGID_12_);fill:#CB9904;}
	.st8{clip-path:url(#SVGID_12_);fill:#FFCC03;}
	.st9{display:inline;fill:#010202;}
</style>
<g class="st0">
	<g class="st1">
		<defs>
			<rect id="SVGID_1_" x="-70" y="-70" width="500" height="500"/>
		</defs>
		<clipPath id="SVGID_2_">
			<use xlink:href="#SVGID_1_"  style="overflow:visible;"/>
		</clipPath>
		<g class="st2">
			<defs>
				<rect id="SVGID_3_" x="-70" y="-70" width="500" height="500"/>
			</defs>
			<clipPath id="SVGID_4_">
				<use xlink:href="#SVGID_3_"  style="overflow:visible;"/>
			</clipPath>
			<path class="st3" d="M430,180c0,138.1-111.9,250-250,250S-70,318.1-70,180S41.9-70,180-70S430,41.9,430,180"/>
		</g>
		<g class="st2">
			<defs>
				<rect id="SVGID_5_" x="-70" y="-70" width="500" height="500"/>
			</defs>
			<clipPath id="SVGID_6_">
				<use xlink:href="#SVGID_5_"  style="overflow:visible;"/>
			</clipPath>
			<path class="st4" d="M176.9,161c-59.3,0-113.4-35.1-137.4-89.3c0,75.9,61.5,137.4,137.4,137.4s137.4-61.5,137.4-137.4
				C290.3,125.9,236.3,161,176.9,161"/>
			<path class="st5" d="M308.5,60.6c-26.2,17.1-90.3,59.2-131.6,59.2c-44.9,0-80.9-13.7-105.3-26.9c-12.1-5.1-23-12-32.1-21.2
				c24.1,54.2,78.1,89.3,137.4,89.3s113.3-35.1,137.4-89.3L308.5,60.6z"/>
			<path class="st4" d="M197.8,227.2c-68.8,25-146.2,7.1-197-45.6c32,88,129.3,133.3,217.2,101.3c88-32,133.3-129.3,101.3-217.2
				C314.3,138.7,266.5,202.2,197.8,227.2"/>
			<path class="st5" d="M308.5,60.6C285.4,91.5,228.2,162,180.4,179.4c-52,18.9-99.5,18.2-133.4,13.2c-16.2-0.8-31.7-4.3-46.1-11
				c50.8,52.7,128.2,70.6,197,45.6c68.8-25,116.5-88.5,121.6-161.5L308.5,60.6z"/>
			<path class="st4" d="M254.7,269c-59.5,49.9-143.3,60.2-213.1,26.1c63.9,76.2,177.4,86.1,253.6,22.2
				c76.2-63.9,86.1-177.4,22.2-253.6C338.8,138.4,314.2,219.1,254.7,269"/>
			<path class="st5" d="M308.5,60.6c-11.9,39.2-47.1,132.3-88.5,167c-45,37.8-92.7,54.3-128.4,61.6c-16.5,5-33.2,7.3-50,5.8
				c69.8,34.1,153.6,23.9,213.1-26.1c59.5-50,84.2-130.7,62.7-205.3L308.5,60.6z"/>
		</g>
	</g>
</g>
<g>
	<g>
		<defs>
			<rect id="SVGID_7_" x="-69.2" y="-72" width="500" height="500"/>
		</defs>
		<clipPath id="SVGID_8_">
			<use xlink:href="#SVGID_7_"  style="overflow:visible;"/>
		</clipPath>
		<g class="st6">
			<defs>
				<rect id="SVGID_9_" x="-69.2" y="-72" width="500" height="500"/>
			</defs>
			<clipPath id="SVGID_10_">
				<use xlink:href="#SVGID_9_"  style="overflow:visible;"/>
			</clipPath>
		</g>
		<g class="st6">
			<defs>
				<rect id="SVGID_11_" x="-69.2" y="-72" width="500" height="500"/>
			</defs>
			<clipPath id="SVGID_12_">
				<use xlink:href="#SVGID_11_"  style="overflow:visible;"/>
			</clipPath>
			<path class="st7" d="M176.4,153.8C94,153.8,18.9,105-14.5,29.7c0,105.4,85.5,190.9,190.9,190.9c105.4,0,190.9-85.5,190.9-190.9
				C333.8,105,258.8,153.8,176.4,153.8"/>
			<path class="st8" d="M359.1,14.4c-36.4,23.8-125.4,82.2-182.7,82.2c-62.3,0-112.3-19-146.3-37.4C13.3,52-1.9,42.4-14.5,29.7
				C18.9,105,94,153.8,176.4,153.8S333.8,105,367.2,29.7L359.1,14.4z"/>
			<path class="st7" d="M205.3,245.7c-95.5,34.8-203,9.9-273.5-63.3c44.5,122.2,179.6,185.2,301.7,140.7
				c122.2-44.5,185.2-179.6,140.7-301.7C367.2,122.8,300.8,210.9,205.3,245.7"/>
			<path class="st8" d="M359.1,14.4c-32.1,42.9-111.5,140.8-177.9,165C109,205.6,43,204.7-4.1,197.7c-22.5-1.2-44.1-5.9-64.1-15.3v0
				c70.5,73.2,178,98,273.5,63.3c95.5-34.8,161.9-122.9,168.9-224.3L359.1,14.4z"/>
			<path class="st7" d="M284.4,303.8c-82.7,69.4-199,83.6-296,36.2c88.7,105.8,246.4,119.6,352.2,30.8
				c105.8-88.8,119.6-246.4,30.8-352.2C401.2,122.3,367,234.4,284.4,303.8"/>
			<path class="st8" d="M359.1,14.4c-16.5,54.5-65.5,183.7-123,232c-62.5,52.5-128.7,75.5-178.3,85.6C35,339,11.7,342-11.6,340h0
				c97,47.4,213.3,33.2,296-36.2c82.7-69.4,116.9-181.5,87.1-285.2L359.1,14.4z"/>
		</g>
	</g>
</g>
<g>
	<path d="M602,334.8c-17.9,16.8-38.8,25.2-68.1,25.2c-38.3,0-61.7-15.8-77.6-35.6C431.5,294.2,430,247.7,430,180
		s1.5-114.2,26.4-144.4C472.3,15.8,495.6,0,533.9,0c29.3,0,50.2,8.4,68.1,25.2c18.4,17.3,30.3,45,31.8,78.6h-70.6
		c-0.5-9.9-1.5-19.8-5.5-27.2c-4-8.4-10.9-13.4-23.9-13.4c-12.9,0-19.9,5.9-23.9,13.8c-8.5,16.3-9.4,60.3-9.4,102.9
		s1,86.5,9.4,102.9c4,7.9,10.9,13.8,23.9,13.8c12.9,0,19.9-5.4,23.9-13.8c4-7.4,5-17.3,5.5-27.2h70.6
		C632.4,289.3,620.4,317.5,602,334.8z"/>
	<path d="M840.8,336.2c-15.7,15.7-40.2,23.8-77.3,23.8H656V0h107.6c37.1,0,61.6,8.1,77.8,23.3c17.8,16.7,24.5,35.4,24.5,74.8
		c0,25.8-4.7,45.5-20.4,60.7c-4.7,4.6-9.9,8.6-17.2,12.1c6.8,3.5,13.1,8.1,17.2,12.6c15.7,15.7,20.4,35.4,20.4,70.8
		C865.9,295.8,859.6,317.5,840.8,336.2z M754.7,64.7h-24.5v76.9h24.5c28.7,0,37.1-12.1,37.1-38.4S783.9,64.7,754.7,64.7z
		 M753.6,202.2h-23.5v93h23.5c29.8,0,38.1-13.7,38.1-46.5S782.4,202.2,753.6,202.2z"/>
</g>
<g class="st0">
	<path class="st9" d="M673,334.8c-18,16.8-39,25.2-68.5,25.2c-38.5,0-62-15.8-78-35.6c-25-30.2-26.5-76.6-26.5-144.4
		s1.5-114.2,26.5-144.4C542.5,15.8,566,0,604.5,0C634,0,655,8.4,673,25.2c18.5,17.3,30.5,45,32,78.6h-71c-0.5-9.9-1.5-19.8-5.5-27.2
		c-4-8.4-11-13.4-24-13.4s-20,5.9-24,13.8C572,93.5,571,137.5,571,180s1,86.5,9.5,102.9c4,7.9,11,13.8,24,13.8s20-5.4,24-13.8
		c4-7.4,5-17.3,5.5-27.2h71C703.5,289.3,691.5,317.5,673,334.8z"/>
	<path class="st9" d="M848,356v-21.8c-5.5,6.4-10.5,12.9-17.5,17.3c-8,5.4-16,8.4-29.5,8.4c-25,0-40-6.9-54.5-24.7
		C735,321.4,731,301.6,731,276.4c0-24.2,9-45,26-59.3c13.5-11.4,31-18.8,66-18.8h20.5v-30.7c0-14.8-7.5-23.2-20-23.2
		c-7,0-11,2.5-14.5,6.4c-4,4.9-6,10.9-6,18.3h-67c0-21.8,7-41.5,24.5-59.3C774,96.4,799.5,86,823,86c23,0,46,5.9,62,21.8
		c15,14.8,25.5,36.1,25.5,66.3v182H848z M843.5,244.3H832c-11,0-18.5,0-25.5,6.4c-5.5,4.9-8.5,15.8-8.5,22.7c0,19.3,9,28.7,23,28.7
		c12,0,22.5-9.9,22.5-28.7V244.3z"/>
	<path class="st9" d="M1097,337.7c-17.5,17.3-39,22.3-63,22.3s-49-7.9-64-23.2c-15.5-16.3-25-34.1-25.5-60.8h66
		c0.5,7.4,3,13.4,7,17.3c4,4.5,10.5,6.9,16.5,6.9c7,0,11-1,16-5.4c3.5-3,5.5-9.4,5.5-14.8c0-5.4-1-9.9-4.5-14.8
		c-4-4.9-10-8.4-17.5-11.4L996,239.3c-19-7.4-33-17.3-41.5-30.7c-6-9.9-9-21.8-9-37.1c0-28.7,9.5-46,24.5-61.3
		C986,94,1009.5,86,1033.5,86c23.5,0,46,7.9,61,21.8c14.5,13.8,25,32.6,25,59.8H1054c0-6.9-2-12.9-5.5-16.8c-4-4-9.5-6.4-15-6.4
		c-6.5,0-12,2.5-15.5,5.9c-4,3.5-5.5,8.4-5.5,14.8c0,4.9,1,8.4,3.5,11.9c3,4.9,9,8.9,17,11.9l37,13.8c19,7.4,31.5,15.8,40.5,28.2
		c7,9.4,12,23.7,12,43.5C1122.5,303.6,1111,323.4,1097,337.7z"/>
	<path class="st9" d="M1269.5,356v-19.3c-5.5,6.4-12,12.9-19.5,16.8c-7.5,4-17,6.4-25.5,6.4c-24.5,0-39-6.9-52-22.3
		c-10.5-12.9-15-27.2-15-60.3V90h67v186.4c0,16.3,9,24.2,21,24.2s21-7.9,21-24.2V90h67v266H1269.5z"/>
	<path class="st9" d="M1484.5,356v-21.8c-5.5,6.4-10.5,12.9-17.5,17.3c-8,5.4-16,8.4-29.5,8.4c-25,0-40-6.9-54.5-24.7
		c-11.5-13.8-15.5-33.6-15.5-58.8c0-24.2,9-45,26-59.3c13.5-11.4,31-18.8,66-18.8h20.5v-30.7c0-14.8-7.5-23.2-20-23.2
		c-7,0-11,2.5-14.5,6.4c-4,4.9-6,10.9-6,18.3h-67c0-21.8,7-41.5,24.5-59.3c13.5-13.4,39-23.7,62.5-23.7c23,0,46,5.9,62,21.8
		c15,14.8,25.5,36.1,25.5,66.3v182H1484.5z M1480,244.3h-11.5c-11,0-18.5,0-25.5,6.4c-5.5,4.9-8.5,15.8-8.5,22.7
		c0,19.3,9,28.7,23,28.7c12,0,22.5-9.9,22.5-28.7V244.3z"/>
	<path class="st9" d="M1622,339.7c-19-13.4-31-34.6-31-69.2V4h67V266c0,20.8,10.5,30.7,33,30.7V356
		C1663.5,356,1641.5,353.6,1622,339.7z"/>
	<path class="st9" d="M1989.5,332.8c-15,15.3-38.5,23.2-74,23.2h-103V4h103c35.5,0,59,7.9,74.5,22.7c17,16.3,23.5,34.6,23.5,73.2
		c0,25.2-4.5,44.5-19.5,59.3c-4.5,4.5-9.5,8.4-16.5,11.9c6.5,3.5,12.5,7.9,16.5,12.4c15,15.3,19.5,34.6,19.5,69.2
		C2013.5,293.2,2007.5,314.5,1989.5,332.8z M1907,67.3h-23.5v75.2h23.5c27.5,0,35.5-11.9,35.5-37.6S1935,67.3,1907,67.3z
		 M1906,201.8h-22.5v91h22.5c28.5,0,36.5-13.4,36.5-45.5S1933.5,201.8,1906,201.8z"/>
	<path class="st9" d="M2164.5,356v-21.8c-5.5,6.4-10.5,12.9-17.5,17.3c-8,5.4-16,8.4-29.5,8.4c-25,0-40-6.9-54.5-24.7
		c-11.5-13.8-15.5-33.6-15.5-58.8c0-24.2,9-45,26-59.3c13.5-11.4,31-18.8,66-18.8h20.5v-30.7c0-14.8-7.5-23.2-20-23.2
		c-7,0-11,2.5-14.5,6.4c-4,4.9-6,10.9-6,18.3h-67c0-21.8,7-41.5,24.5-59.3c13.5-13.4,39-23.7,62.5-23.7c23,0,46,5.9,62,21.8
		c15,14.8,25.5,36.1,25.5,66.3v182H2164.5z M2160,244.3h-11.5c-11,0-18.5,0-25.5,6.4c-5.5,4.9-8.5,15.8-8.5,22.7
		c0,19.3,9,28.7,23,28.7c12,0,22.5-9.9,22.5-28.7V244.3z"/>
	<path class="st9" d="M2381,356V169.6c0-16.3-9-24.2-21-24.2s-21,7.9-21,24.2V356h-67V90h64v19.3c5.5-6.4,12-12.9,19.5-16.8
		c7.5-4,17-6.4,25.5-6.4c24.5,0,39,6.9,52,22.3c10.5,12.9,15,27.2,15,60.3V356H2381z"/>
	<path class="st9" d="M2598,356v-21.8c-5.5,6.4-10.5,12.9-17.5,17.3c-8,5.4-16,8.4-29.5,8.4c-25,0-40-6.9-54.5-24.7
		c-11.5-13.8-15.5-33.6-15.5-58.8c0-24.2,9-45,26-59.3c13.5-11.4,31-18.8,66-18.8h20.5v-30.7c0-14.8-7.5-23.2-20-23.2
		c-7,0-11,2.5-14.5,6.4c-4,4.9-6,10.9-6,18.3h-67c0-21.8,7-41.5,24.5-59.3c13.5-13.4,39-23.7,62.5-23.7c23,0,46,5.9,62,21.8
		c15,14.8,25.5,36.1,25.5,66.3v182H2598z M2593.5,244.3H2582c-11,0-18.5,0-25.5,6.4c-5.5,4.9-8.5,15.8-8.5,22.7
		c0,19.3,9,28.7,23,28.7c12,0,22.5-9.9,22.5-28.7V244.3z"/>
	<path class="st9" d="M2814.4,356V169.6c0-16.3-9-24.2-21-24.2s-21,7.9-21,24.2V356h-67V90h64v19.3c5.5-6.4,12-12.9,19.5-16.8
		c7.5-4,17-6.4,25.5-6.4c24.5,0,39,6.9,52,22.3c10.5,12.9,15,27.2,15,60.3V356H2814.4z"/>
	<path class="st9" d="M3031.4,356v-21.8c-5.5,6.4-10.5,12.9-17.5,17.3c-8,5.4-16,8.4-29.5,8.4c-25,0-40-6.9-54.5-24.7
		c-11.5-13.8-15.5-33.6-15.5-58.8c0-24.2,9-45,26-59.3c13.5-11.4,31-18.8,66-18.8h20.5v-30.7c0-14.8-7.5-23.2-20-23.2
		c-7,0-11,2.5-14.5,6.4c-4,4.9-6,10.9-6,18.3h-67c0-21.8,7-41.5,24.5-59.3c13.5-13.4,39-23.7,62.5-23.7c23,0,46,5.9,62,21.8
		c15,14.8,25.5,36.1,25.5,66.3v182H3031.4z M3026.9,244.3h-11.5c-11,0-18.5,0-25.5,6.4c-5.5,4.9-8.5,15.8-8.5,22.7
		c0,19.3,9,28.7,23,28.7c12,0,22.5-9.9,22.5-28.7V244.3z"/>
	<path class="st9" d="M3280.4,337.7c-17.5,17.3-39,22.3-63,22.3s-49-7.9-64-23.2c-15.5-16.3-25-34.1-25.5-60.8h66
		c0.5,7.4,3,13.4,7,17.3c4,4.5,10.5,6.9,16.5,6.9c7,0,11-1,16-5.4c3.5-3,5.5-9.4,5.5-14.8c0-5.4-1-9.9-4.5-14.8
		c-4-4.9-10-8.4-17.5-11.4l-37.5-14.3c-19-7.4-33-17.3-41.5-30.7c-6-9.9-9-21.8-9-37.1c0-28.7,9.5-46,24.5-61.3
		c16-16.3,39.5-24.2,63.5-24.2c23.5,0,46,7.9,61,21.8c14.5,13.8,25,32.6,25,59.8h-65.5c0-6.9-2-12.9-5.5-16.8c-4-4-9.5-6.4-15-6.4
		c-6.5,0-12,2.5-15.5,5.9c-4,3.5-5.5,8.4-5.5,14.8c0,4.9,1,8.4,3.5,11.9c3,4.9,9,8.9,17,11.9l37,13.8c19,7.4,31.5,15.8,40.5,28.2
		c7,9.4,12,23.7,12,43.5C3305.9,303.6,3294.4,323.4,3280.4,337.7z"/>
</g>
<g>
</g>
<g>
</g>
<g>
</g>
<g>
</g>
<g>
</g>
<g>
</g>
</svg>
